<svg width="830" height="135" viewBox="0 0 830 135" fill="none" xmlns="http://www.w3.org/2000/svg">
<g clip-path="url(#clip0_608_6286)">
<rect width="830" height="135" rx="14" fill="#161830"/>
<rect width="830" height="135" rx="14" fill="#141627" fill-opacity="0.4"/>
<rect width="830" height="135" rx="14" fill="url(#paint0_radial_608_6286)" fill-opacity="0.2"/>
<rect width="830" height="135" rx="14" fill="url(#paint1_radial_608_6286)" fill-opacity="0.2"/>
<path fill-rule="evenodd" clip-rule="evenodd" d="M39.0098 30.8346L28 30.835V25.123H39.0098V30.835H44.754V41.8771H39.0098V36.5471C36.093 36.5979 33.7442 38.9647 33.7442 41.8771H28C28 35.8103 32.9205 30.8862 39.0098 30.835V30.8346Z" fill="#A0A8FF"/>
<path d="M65.1859 26.012L64.4859 29.316C64.1872 29.1293 63.7859 28.9707 63.2819 28.84C62.7966 28.7093 62.2926 28.6067 61.7699 28.532C61.2472 28.4387 60.7526 28.392 60.2859 28.392C59.3899 28.392 58.7086 28.5227 58.2419 28.784C57.7752 29.0453 57.5419 29.4467 57.5419 29.988C57.5419 30.3613 57.6912 30.66 57.9899 30.884C58.2886 31.108 58.6806 31.304 59.1659 31.472C59.6699 31.64 60.2206 31.808 60.8179 31.976C61.4152 32.144 62.0126 32.3493 62.6099 32.592C63.2072 32.816 63.7486 33.1147 64.2339 33.488C64.7192 33.8427 65.1112 34.3093 65.4099 34.888C65.7272 35.448 65.8859 36.148 65.8859 36.988C65.8859 38.5933 65.2979 39.872 64.1219 40.824C62.9459 41.776 61.2472 42.252 59.0259 42.252C57.9992 42.252 57.0192 42.1587 56.0859 41.972C55.1712 41.7853 54.4152 41.5333 53.8179 41.216L54.1259 37.744C54.4992 37.968 54.9566 38.1733 55.4979 38.36C56.0392 38.5467 56.6272 38.696 57.2619 38.808C57.8966 38.92 58.5219 38.976 59.1379 38.976C60.1272 38.976 60.8646 38.8453 61.3499 38.584C61.8352 38.304 62.0779 37.884 62.0779 37.324C62.0779 36.932 61.9192 36.6147 61.6019 36.372C61.3032 36.1293 60.9112 35.924 60.4259 35.756C59.9406 35.588 59.3992 35.42 58.8019 35.252C58.2046 35.084 57.6072 34.888 57.0099 34.664C56.4126 34.4213 55.8619 34.1227 55.3579 33.768C54.8726 33.4133 54.4806 32.956 54.1819 32.396C53.8832 31.836 53.7339 31.136 53.7339 30.296C53.7339 29.2693 53.9859 28.3733 54.4899 27.608C55.0126 26.824 55.7592 26.2173 56.7299 25.788C57.7006 25.34 58.8579 25.116 60.2019 25.116C60.7432 25.116 61.3219 25.1533 61.9379 25.228C62.5539 25.284 63.1419 25.3773 63.7019 25.508C64.2806 25.6387 64.7752 25.8067 65.1859 26.012ZM79.6658 35.84C79.6658 37.072 79.3765 38.1733 78.7978 39.144C78.2378 40.1147 77.4538 40.88 76.4458 41.44C75.4378 41.9813 74.2898 42.252 73.0018 42.252C71.7138 42.252 70.5658 41.9813 69.5578 41.44C68.5498 40.88 67.7565 40.1147 67.1778 39.144C66.6178 38.1733 66.3378 37.072 66.3378 35.84C66.3378 34.5893 66.6178 33.488 67.1778 32.536C67.7565 31.5653 68.5498 30.8093 69.5578 30.268C70.5658 29.708 71.7138 29.428 73.0018 29.428C74.2898 29.428 75.4378 29.708 76.4458 30.268C77.4538 30.8093 78.2378 31.5653 78.7978 32.536C79.3765 33.488 79.6658 34.5893 79.6658 35.84ZM75.9698 35.84C75.9698 35.1867 75.8392 34.6173 75.5778 34.132C75.3165 33.628 74.9618 33.2453 74.5138 32.984C74.0658 32.704 73.5618 32.564 73.0018 32.564C72.4418 32.564 71.9378 32.704 71.4898 32.984C71.0418 33.2453 70.6872 33.628 70.4258 34.132C70.1645 34.6173 70.0338 35.1867 70.0338 35.84C70.0338 36.4933 70.1645 37.072 70.4258 37.576C70.6872 38.0613 71.0418 38.444 71.4898 38.724C71.9565 38.9853 72.4605 39.116 73.0018 39.116C73.5805 39.116 74.0938 38.9853 74.5418 38.724C74.9898 38.444 75.3352 38.0613 75.5778 37.576C75.8392 37.072 75.9698 36.4933 75.9698 35.84ZM95.446 25.368V42H91.722V35.308H84.694V42H80.97V25.368H84.694V31.948H91.722V25.368H95.446ZM108.071 42H104.683V41.048C104.235 41.4027 103.694 41.692 103.059 41.916C102.425 42.14 101.725 42.252 100.959 42.252C99.5967 42.252 98.5514 41.9253 97.8234 41.272C97.1141 40.6187 96.7594 39.7133 96.7594 38.556C96.7594 37.3053 97.1981 36.3627 98.0754 35.728C98.9527 35.0747 100.138 34.748 101.631 34.748C102.173 34.748 102.714 34.7947 103.255 34.888C103.797 34.9813 104.235 35.1027 104.571 35.252V34.58C104.571 33.852 104.338 33.3387 103.871 33.04C103.423 32.7227 102.714 32.564 101.743 32.564C101.053 32.564 100.343 32.648 99.6154 32.816C98.9061 32.984 98.3367 33.1987 97.9074 33.46L97.7674 30.324C98.3461 30.044 99.0274 29.8293 99.8114 29.68C100.614 29.512 101.435 29.428 102.275 29.428C104.142 29.428 105.57 29.8293 106.559 30.632C107.567 31.416 108.071 32.6573 108.071 34.356V42ZM104.571 39.144V37.38C104.31 37.2493 103.983 37.1467 103.591 37.072C103.218 36.9973 102.854 36.96 102.499 36.96C101.79 36.96 101.249 37.0907 100.875 37.352C100.502 37.5947 100.315 37.9773 100.315 38.5C100.315 38.9853 100.474 39.34 100.791 39.564C101.109 39.7693 101.575 39.872 102.191 39.872C102.621 39.872 103.059 39.8067 103.507 39.676C103.955 39.5267 104.31 39.3493 104.571 39.144ZM128.624 29.68L124.984 42H121.176L119.72 37.66C119.458 36.764 119.244 36.0453 119.076 35.504C118.908 34.944 118.768 34.4307 118.656 33.964H118.516C118.422 34.4307 118.282 34.944 118.096 35.504C117.928 36.0453 117.713 36.764 117.452 37.66L115.996 42H112.188L108.548 29.764L112.16 29.596L113.812 35.476C113.905 35.868 113.998 36.3347 114.092 36.876C114.204 37.3987 114.288 37.884 114.344 38.332H114.484C114.54 37.884 114.633 37.3987 114.764 36.876C114.894 36.3347 115.016 35.868 115.128 35.476L116.752 30.604H120.56L122.184 35.476C122.296 35.868 122.417 36.3347 122.548 36.876C122.678 37.3987 122.772 37.884 122.828 38.332H122.968C123.024 37.884 123.098 37.3987 123.192 36.876C123.304 36.3347 123.406 35.868 123.5 35.476L125.096 29.68H128.624ZM141.788 35.7C141.788 36.9507 141.517 38.0707 140.976 39.06C140.453 40.0493 139.725 40.8333 138.792 41.412C137.877 41.972 136.813 42.252 135.6 42.252C134.554 42.252 133.705 42.084 133.052 41.748V47.18H129.468V29.764L133.052 29.596V30.492C133.481 30.1373 133.957 29.876 134.48 29.708C135.002 29.5213 135.6 29.428 136.272 29.428C137.298 29.428 138.222 29.68 139.044 30.184C139.884 30.688 140.546 31.4067 141.032 32.34C141.536 33.2733 141.788 34.3933 141.788 35.7ZM138.092 35.812C138.092 35.14 137.98 34.5613 137.756 34.076C137.532 33.572 137.196 33.1893 136.748 32.928C136.318 32.648 135.777 32.508 135.124 32.508C134.321 32.508 133.63 32.7227 133.052 33.152V38.836C133.294 38.9293 133.574 39.0133 133.892 39.088C134.228 39.144 134.573 39.172 134.928 39.172C135.581 39.172 136.141 39.0413 136.608 38.78C137.074 38.5 137.438 38.108 137.7 37.604C137.961 37.0813 138.092 36.484 138.092 35.812ZM155.166 35.7C155.166 36.9507 154.896 38.0707 154.354 39.06C153.832 40.0493 153.104 40.8333 152.17 41.412C151.256 41.972 150.192 42.252 148.978 42.252C147.933 42.252 147.084 42.084 146.43 41.748V47.18H142.846V29.764L146.43 29.596V30.492C146.86 30.1373 147.336 29.876 147.858 29.708C148.381 29.5213 148.978 29.428 149.65 29.428C150.677 29.428 151.601 29.68 152.422 30.184C153.262 30.688 153.925 31.4067 154.41 32.34C154.914 33.2733 155.166 34.3933 155.166 35.7ZM151.47 35.812C151.47 35.14 151.358 34.5613 151.134 34.076C150.91 33.572 150.574 33.1893 150.126 32.928C149.697 32.648 149.156 32.508 148.502 32.508C147.7 32.508 147.009 32.7227 146.43 33.152V38.836C146.673 38.9293 146.953 39.0133 147.27 39.088C147.606 39.144 147.952 39.172 148.306 39.172C148.96 39.172 149.52 39.0413 149.986 38.78C150.453 38.5 150.817 38.108 151.078 37.604C151.34 37.0813 151.47 36.484 151.47 35.812ZM168.212 29.68L164.572 40.18C164.049 41.7293 163.424 43.0173 162.696 44.044C161.986 45.0707 161.202 45.8547 160.344 46.396C159.504 46.9373 158.617 47.2827 157.684 47.432L156.172 44.632C157.049 44.464 157.786 44.156 158.384 43.708C159 43.26 159.494 42.6907 159.868 42L154.996 29.764L158.776 29.596L160.848 34.944C161.09 35.6347 161.305 36.2787 161.492 36.876C161.697 37.4733 161.837 37.9773 161.912 38.388H162.052C162.126 37.9773 162.238 37.4733 162.388 36.876C162.537 36.2787 162.714 35.6347 162.92 34.944L164.6 29.68H168.212Z" fill="#A0A8FF"/>
<path d="M48.4377 78H43.5601L41.8427 73.0194H34.6637L32.9119 78H28.2748L35.6942 57.5966H41.0183L48.4377 78ZM40.6748 69.4127L39.0261 64.7756C38.8658 64.3176 38.7284 63.894 38.6139 63.5047C38.5223 63.0925 38.4307 62.6803 38.3391 62.2681H38.1673C38.0757 62.6803 37.9727 63.0925 37.8582 63.5047C37.7666 63.894 37.6407 64.3176 37.4804 64.7756L35.7972 69.4127H40.6748ZM64.2568 78H59.8601V68.9662C59.8601 68.0731 59.6426 67.4319 59.2075 67.0426C58.7724 66.6533 58.177 66.4587 57.4214 66.4587C56.9176 66.4587 56.4023 66.5503 55.8756 66.7335C55.349 66.8938 54.8452 67.1228 54.3643 67.4205V78H49.9676V62.9894L54.3643 62.7833V64.1917C55.0971 63.6421 55.8413 63.2413 56.597 62.9894C57.3756 62.7146 58.1885 62.5772 59.0358 62.5772C60.6158 62.5772 61.8753 63.0238 62.8142 63.9169C63.7759 64.787 64.2568 66.161 64.2568 68.0388V78ZM86.6847 78H82.5284V76.8321C81.9788 77.2672 81.3147 77.6222 80.5362 77.897C79.7576 78.1717 78.8989 78.3091 77.96 78.3091C76.2883 78.3091 75.006 77.9084 74.1129 77.1069C73.2427 76.3054 72.8076 75.1948 72.8076 73.7751C72.8076 72.2408 73.3457 71.0844 74.422 70.3058C75.4983 69.5043 76.9524 69.1036 78.7844 69.1036C79.4484 69.1036 80.1125 69.1608 80.7766 69.2753C81.4407 69.3898 81.9788 69.5387 82.391 69.7219V68.8975C82.391 68.0044 82.1048 67.3747 81.5323 67.0083C80.9827 66.619 80.1125 66.4243 78.9218 66.4243C78.0745 66.4243 77.2043 66.5274 76.3112 66.7335C75.441 66.9396 74.7426 67.2029 74.2159 67.5235L74.0442 63.6764C74.7541 63.3329 75.5899 63.0696 76.5517 62.8864C77.5363 62.6803 78.5439 62.5772 79.5744 62.5772C81.8643 62.5772 83.6161 63.0696 84.8298 64.0543C86.0664 65.016 86.6847 66.5388 86.6847 68.6227V78ZM82.391 74.4964V72.3324C82.0704 72.1721 81.6697 72.0462 81.1888 71.9546C80.7308 71.863 80.2843 71.8172 79.8492 71.8172C78.979 71.8172 78.3149 71.9775 77.8569 72.298C77.3989 72.5957 77.1699 73.0652 77.1699 73.7064C77.1699 74.3017 77.3646 74.7368 77.7539 75.0116C78.1432 75.2635 78.7157 75.3895 79.4713 75.3895C79.998 75.3895 80.5362 75.3093 81.0857 75.149C81.6353 74.9658 82.0704 74.7483 82.391 74.4964ZM112.584 62.8864L108.119 78H103.447L101.661 72.6759C101.341 71.5767 101.077 70.6951 100.871 70.031C100.665 69.344 100.493 68.7143 100.356 68.1418H100.184C100.07 68.7143 99.8979 69.344 99.6689 70.031C99.4628 70.6951 99.1995 71.5767 98.8789 72.6759L97.0927 78H92.4212L87.9558 62.9894L92.3869 62.7833L94.4135 69.9967C94.528 70.4775 94.6425 71.05 94.757 71.7141C94.8944 72.3553 94.9974 72.9507 95.0661 73.5003H95.2379C95.3066 72.9507 95.421 72.3553 95.5813 71.7141C95.7416 71.05 95.8905 70.4775 96.0279 69.9967L98.0201 64.0199H102.692L104.684 69.9967C104.821 70.4775 104.97 71.05 105.13 71.7141C105.291 72.3553 105.405 72.9507 105.474 73.5003H105.646C105.714 72.9507 105.806 72.3553 105.92 71.7141C106.058 71.05 106.184 70.4775 106.298 69.9967L108.256 62.8864H112.584ZM137.767 78H133.37V68.9662C133.37 68.8517 133.359 68.7486 133.336 68.657C133.313 68.5654 133.29 68.4738 133.267 68.3822C133.198 67.6953 132.969 67.2029 132.58 66.9052C132.191 66.6075 131.687 66.4587 131.069 66.4587C131.046 66.4587 131.012 66.4701 130.966 66.493C130.92 66.493 130.886 66.493 130.863 66.493C130.428 66.5159 129.97 66.6075 129.489 66.7678C129.031 66.9281 128.584 67.1457 128.149 67.4205C128.172 67.6266 128.183 67.8327 128.183 68.0388C128.206 68.2449 128.218 68.4624 128.218 68.6914V78H123.855V68.9662C123.855 68.8517 123.844 68.7486 123.821 68.657C123.798 68.5654 123.775 68.4738 123.752 68.3822C123.684 67.6953 123.455 67.2029 123.065 66.9052C122.676 66.6075 122.172 66.4587 121.554 66.4587C121.119 66.4587 120.638 66.5503 120.111 66.7335C119.608 66.8938 119.138 67.1228 118.703 67.4205V78H114.306V62.9894L118.703 62.7833V64.1917C119.207 63.8024 119.711 63.4932 120.214 63.2642C120.741 63.0123 121.256 62.852 121.76 62.7833C122.356 62.6459 122.985 62.6116 123.649 62.6803C124.474 62.7261 125.218 62.9207 125.882 63.2642C126.546 63.6077 127.073 64.123 127.462 64.8099C128.264 64.0314 129.088 63.4703 129.935 63.1268C130.805 62.7604 131.687 62.5772 132.58 62.5772C134.114 62.5772 135.362 63.0238 136.324 63.9169C137.286 64.787 137.767 66.161 137.767 68.0388V78ZM153.648 78H149.492V76.8321C148.942 77.2672 148.278 77.6222 147.499 77.897C146.721 78.1717 145.862 78.3091 144.923 78.3091C143.252 78.3091 141.969 77.9084 141.076 77.1069C140.206 76.3054 139.771 75.1948 139.771 73.7751C139.771 72.2408 140.309 71.0844 141.385 70.3058C142.462 69.5043 143.916 69.1036 145.748 69.1036C146.412 69.1036 147.076 69.1608 147.74 69.2753C148.404 69.3898 148.942 69.5387 149.354 69.7219V68.8975C149.354 68.0044 149.068 67.3747 148.496 67.0083C147.946 66.619 147.076 66.4243 145.885 66.4243C145.038 66.4243 144.168 66.5274 143.275 66.7335C142.404 66.9396 141.706 67.2029 141.179 67.5235L141.008 63.6764C141.717 63.3329 142.553 63.0696 143.515 62.8864C144.5 62.6803 145.507 62.5772 146.538 62.5772C148.828 62.5772 150.579 63.0696 151.793 64.0543C153.03 65.016 153.648 66.5388 153.648 68.6227V78ZM149.354 74.4964V72.3324C149.034 72.1721 148.633 72.0462 148.152 71.9546C147.694 71.863 147.248 71.8172 146.813 71.8172C145.942 71.8172 145.278 71.9775 144.82 72.298C144.362 72.5957 144.133 73.0652 144.133 73.7064C144.133 74.3017 144.328 74.7368 144.717 75.0116C145.107 75.2635 145.679 75.3895 146.435 75.3895C146.961 75.3895 147.499 75.3093 148.049 75.149C148.599 74.9658 149.034 74.7483 149.354 74.4964ZM155.735 78V74.2559L163.12 66.6648H156.147V62.8864H168.341V66.6304L160.99 74.2216H168.753V78H155.735ZM173.205 55.9479C173.892 55.9479 174.453 56.1769 174.888 56.6349C175.323 57.0699 175.541 57.6195 175.541 58.2836C175.541 58.9706 175.323 59.5431 174.888 60.0011C174.453 60.4362 173.892 60.6537 173.205 60.6537C172.495 60.6537 171.9 60.4362 171.419 60.0011C170.961 59.5431 170.732 58.9706 170.732 58.2836C170.732 57.6195 170.961 57.0699 171.419 56.6349C171.9 56.1769 172.495 55.9479 173.205 55.9479ZM175.335 62.7833V78H170.938V62.9894L175.335 62.7833ZM192.532 78H188.135V68.9662C188.135 68.0731 187.918 67.4319 187.483 67.0426C187.048 66.6533 186.452 66.4587 185.697 66.4587C185.193 66.4587 184.677 66.5503 184.151 66.7335C183.624 66.8938 183.12 67.1228 182.639 67.4205V78H178.243V62.9894L182.639 62.7833V64.1917C183.372 63.6421 184.116 63.2413 184.872 62.9894C185.651 62.7146 186.464 62.5772 187.311 62.5772C188.891 62.5772 190.15 63.0238 191.089 63.9169C192.051 64.787 192.532 66.161 192.532 68.0388V78ZM209.526 62.3712L209.492 65.7717H207.225C207.454 66.0694 207.625 66.4129 207.74 66.8022C207.877 67.1686 207.946 67.5579 207.946 67.9701C207.946 69.5501 207.396 70.821 206.297 71.7828C205.198 72.7217 203.698 73.2369 201.797 73.3285L200.217 74.8742C200.492 74.8284 200.813 74.7941 201.179 74.7712C201.546 74.7254 201.912 74.7025 202.278 74.7025C202.645 74.6796 202.931 74.6681 203.137 74.6681C205.267 74.6681 206.893 75.0803 208.015 75.9047C209.16 76.7062 209.732 77.8741 209.732 79.4083C209.732 80.9197 209.102 82.1677 207.843 83.1524C206.606 84.1599 204.603 84.6637 201.832 84.6637C200.229 84.6637 198.729 84.5149 197.332 84.2172C195.958 83.9195 194.847 83.5188 194 83.015L194.344 79.2366C194.825 79.5801 195.477 79.8892 196.302 80.164C197.126 80.4388 198.042 80.6563 199.049 80.8166C200.08 80.9998 201.088 81.0914 202.072 81.0914C203.057 81.0914 203.801 81.0227 204.305 80.8853C204.809 80.7708 205.164 80.5876 205.37 80.3357C205.576 80.1067 205.679 79.8205 205.679 79.477C205.679 78.9503 205.416 78.5725 204.889 78.3435C204.385 78.1374 203.435 78.0343 202.038 78.0343C201.191 78.0343 200.286 78.0687 199.324 78.1374C198.362 78.2061 197.538 78.3206 196.851 78.4809V75.4238L199.29 73.1224C197.824 72.8476 196.691 72.2408 195.889 71.3019C195.088 70.363 194.687 69.2524 194.687 67.9701C194.687 66.8709 194.95 65.9206 195.477 65.1191C196.027 64.3176 196.794 63.6993 197.779 63.2642C198.786 62.8062 199.965 62.5772 201.317 62.5772C202.255 62.5772 203.126 62.7032 203.927 62.9551L209.526 62.3712ZM203.927 67.9701C203.927 67.2602 203.687 66.6762 203.206 66.2183C202.748 65.7603 202.118 65.5313 201.317 65.5313C200.492 65.5313 199.839 65.7603 199.359 66.2183C198.901 66.6762 198.672 67.2602 198.672 67.9701C198.672 68.657 198.901 69.2295 199.359 69.6875C199.839 70.1455 200.492 70.3745 201.317 70.3745C202.118 70.3745 202.748 70.157 203.206 69.7219C203.687 69.2639 203.927 68.6799 203.927 67.9701ZM236.657 78H231.78L230.062 73.0194H222.883L221.132 78H216.495L223.914 57.5966H229.238L236.657 78ZM228.895 69.4127L227.246 64.7756C227.085 64.3176 226.948 63.894 226.834 63.5047C226.742 63.0925 226.65 62.6803 226.559 62.2681H226.387C226.295 62.6803 226.192 63.0925 226.078 63.5047C225.986 63.894 225.86 64.3176 225.7 64.7756L224.017 69.4127H228.895ZM254.057 64.6038C254.057 66.1152 253.713 67.3976 253.026 68.4509C252.362 69.5043 251.389 70.2943 250.106 70.821C248.824 71.3477 247.278 71.6111 245.469 71.6111H243.065V78H238.496V57.5966H245.504C247.313 57.5966 248.847 57.8714 250.106 58.421C251.389 58.9706 252.362 59.7606 253.026 60.7911C253.713 61.8216 254.057 63.0925 254.057 64.6038ZM249.488 64.6038C249.488 63.8482 249.316 63.2299 248.973 62.749C248.652 62.2681 248.183 61.9132 247.565 61.6842C246.969 61.4552 246.248 61.3407 245.401 61.3407H243.065V67.867H245.401C246.248 67.867 246.969 67.7525 247.565 67.5235C248.183 67.2945 248.652 66.9396 248.973 66.4587C249.316 65.9778 249.488 65.3595 249.488 64.6038ZM261.104 57.5966V78H256.535V57.5966H261.104ZM53.1092 91.8864L48.6438 107H43.9723L42.1862 101.676C41.8656 100.577 41.6022 99.6951 41.3962 99.031C41.1901 98.344 41.0183 97.7143 40.8809 97.1418H40.7092C40.5947 97.7143 40.4229 98.344 40.1939 99.031C39.9878 99.6951 39.7245 100.577 39.4039 101.676L37.6178 107H32.9463L28.4809 91.9894L32.9119 91.7833L34.9385 98.9967C35.053 99.4775 35.1675 100.05 35.282 100.714C35.4194 101.355 35.5225 101.951 35.5912 102.5H35.7629C35.8316 101.951 35.9461 101.355 36.1064 100.714C36.2667 100.05 36.4155 99.4775 36.5529 98.9967L38.5452 93.0199H43.2167L45.2089 98.9967C45.3463 99.4775 45.4951 100.05 45.6554 100.714C45.8157 101.355 45.9302 101.951 45.9989 102.5H46.1707C46.2394 101.951 46.331 101.355 46.4455 100.714C46.5829 100.05 46.7088 99.4775 46.8233 98.9967L48.7812 91.8864H53.1092ZM64.4492 91.749L64.2775 95.9739C64.1401 95.9052 63.8997 95.8365 63.5562 95.7678C63.2356 95.6991 62.9264 95.6648 62.6287 95.6648C62.0105 95.6648 61.4036 95.7793 60.8082 96.0083C60.2358 96.2144 59.7091 96.5006 59.2282 96.867V107H54.8315V91.9894L59.2282 91.7833V93.5695C59.8923 92.8825 60.5678 92.3787 61.2548 92.0581C61.9647 91.7375 62.6974 91.5772 63.4531 91.5772C63.6134 91.5772 63.7852 91.5887 63.9684 91.6116C64.1744 91.6345 64.3347 91.6803 64.4492 91.749ZM79.1118 107H74.9555V105.832C74.4059 106.267 73.7418 106.622 72.9633 106.897C72.1847 107.172 71.326 107.309 70.3871 107.309C68.7154 107.309 67.4331 106.908 66.54 106.107C65.6698 105.305 65.2347 104.195 65.2347 102.775C65.2347 101.241 65.7728 100.084 66.8491 99.3058C67.9254 98.5043 69.3795 98.1036 71.2115 98.1036C71.8755 98.1036 72.5396 98.1608 73.2037 98.2753C73.8678 98.3898 74.4059 98.5387 74.8181 98.7219V97.8975C74.8181 97.0044 74.5319 96.3747 73.9594 96.0083C73.4098 95.619 72.5396 95.4243 71.3489 95.4243C70.5016 95.4243 69.6314 95.5274 68.7383 95.7335C67.8681 95.9396 67.1697 96.2029 66.643 96.5235L66.4713 92.6764C67.1812 92.3329 68.017 92.0696 68.9788 91.8864C69.9634 91.6803 70.971 91.5772 72.0015 91.5772C74.2914 91.5772 76.0432 92.0696 77.2569 93.0543C78.4935 94.016 79.1118 95.5388 79.1118 97.6227V107ZM74.8181 103.496V101.332C74.4975 101.172 74.0968 101.046 73.6159 100.955C73.1579 100.863 72.7114 100.817 72.2763 100.817C71.4061 100.817 70.742 100.977 70.284 101.298C69.826 101.596 69.597 102.065 69.597 102.706C69.597 103.302 69.7917 103.737 70.181 104.012C70.5703 104.264 71.1428 104.389 71.8984 104.389C72.4251 104.389 72.9633 104.309 73.5128 104.149C74.0624 103.966 74.4975 103.748 74.8181 103.496ZM97.0997 99.2714C97.0997 100.806 96.7676 102.18 96.1036 103.393C95.4624 104.607 94.5693 105.569 93.4243 106.279C92.3023 106.966 90.997 107.309 89.5085 107.309C88.2262 107.309 87.1842 107.103 86.3828 106.691V113.355H81.9861V91.9894L86.3828 91.7833V92.8825C86.9094 92.4474 87.4934 92.1268 88.1346 91.9207C88.7757 91.6917 89.5085 91.5772 90.3329 91.5772C91.5924 91.5772 92.7259 91.8864 93.7335 92.5047C94.7639 93.123 95.5769 94.0046 96.1723 95.1496C96.7905 96.2945 97.0997 97.6685 97.0997 99.2714ZM92.5656 99.4088C92.5656 98.5845 92.4282 97.8746 92.1534 97.2792C91.8786 96.6609 91.4664 96.1915 90.9168 95.8709C90.3902 95.5274 89.7261 95.3556 88.9246 95.3556C87.9399 95.3556 87.0926 95.619 86.3828 96.1457V103.119C86.6805 103.233 87.0239 103.336 87.4132 103.428C87.8254 103.496 88.2491 103.531 88.6842 103.531C89.4856 103.531 90.1726 103.37 90.7451 103.05C91.3176 102.706 91.7641 102.225 92.0847 101.607C92.4053 100.966 92.5656 100.233 92.5656 99.4088ZM114.199 99.2714C114.199 100.806 113.867 102.18 113.203 103.393C112.562 104.607 111.669 105.569 110.524 106.279C109.402 106.966 108.096 107.309 106.608 107.309C105.326 107.309 104.284 107.103 103.482 106.691V113.355H99.0855V91.9894L103.482 91.7833V92.8825C104.009 92.4474 104.593 92.1268 105.234 91.9207C105.875 91.6917 106.608 91.5772 107.432 91.5772C108.692 91.5772 109.825 91.8864 110.833 92.5047C111.863 93.123 112.676 94.0046 113.272 95.1496C113.89 96.2945 114.199 97.6685 114.199 99.2714ZM109.665 99.4088C109.665 98.5845 109.528 97.8746 109.253 97.2792C108.978 96.6609 108.566 96.1915 108.016 95.8709C107.49 95.5274 106.825 95.3556 106.024 95.3556C105.039 95.3556 104.192 95.619 103.482 96.1457V103.119C103.78 103.233 104.123 103.336 104.513 103.428C104.925 103.496 105.348 103.531 105.784 103.531C106.585 103.531 107.272 103.37 107.845 103.05C108.417 102.706 108.864 102.225 109.184 101.607C109.505 100.966 109.665 100.233 109.665 99.4088ZM129.581 100.508H119.895C120.032 101.126 120.307 101.664 120.719 102.122C121.154 102.558 121.704 102.89 122.368 103.119C123.055 103.348 123.856 103.462 124.772 103.462C125.551 103.462 126.387 103.359 127.28 103.153C128.173 102.924 128.906 102.638 129.478 102.294L129.65 106.038C129.054 106.45 128.253 106.771 127.245 107C126.261 107.206 125.333 107.309 124.463 107.309C122.517 107.309 120.845 106.989 119.448 106.347C118.074 105.683 117.032 104.756 116.322 103.565C115.635 102.374 115.292 100.977 115.292 99.3745C115.292 97.7944 115.612 96.4319 116.254 95.287C116.918 94.1191 117.822 93.2146 118.967 92.5734C120.135 91.9093 121.44 91.5772 122.883 91.5772C124.211 91.5772 125.39 91.8406 126.421 92.3673C127.474 92.894 128.287 93.6611 128.86 94.6687C129.455 95.6533 129.753 96.8441 129.753 98.241C129.753 98.5387 129.73 98.9051 129.684 99.3401C129.661 99.7523 129.627 100.142 129.581 100.508ZM122.917 94.7374C122.024 94.7374 121.291 95.0351 120.719 95.6304C120.169 96.2258 119.837 97.0159 119.723 98.0005H125.665C125.665 97.9547 125.665 97.886 125.665 97.7944C125.665 97.6799 125.665 97.5998 125.665 97.554C125.665 96.7067 125.413 96.0312 124.91 95.5274C124.429 95.0007 123.765 94.7374 122.917 94.7374ZM141.594 91.749L141.422 95.9739C141.285 95.9052 141.044 95.8365 140.701 95.7678C140.38 95.6991 140.071 95.6648 139.773 95.6648C139.155 95.6648 138.548 95.7793 137.953 96.0083C137.38 96.2144 136.854 96.5006 136.373 96.867V107H131.976V91.9894L136.373 91.7833V93.5695C137.037 92.8825 137.712 92.3787 138.399 92.0581C139.109 91.7375 139.842 91.5772 140.598 91.5772C140.758 91.5772 140.93 91.5887 141.113 91.6116C141.319 91.6345 141.479 91.6803 141.594 91.749ZM165.647 85.4631L165.475 89.2415C165.315 89.1728 165.098 89.127 164.823 89.1041C164.571 89.0812 164.33 89.0698 164.101 89.0698C163.277 89.0698 162.647 89.253 162.212 89.6193C161.777 89.9857 161.56 90.5926 161.56 91.4399V91.8864H165.304L164.994 95.6648H161.56V107H157.163V95.6648H155.102V91.8864H157.163V91.3712C157.163 89.356 157.747 87.8332 158.915 86.8027C160.083 85.7493 161.651 85.2227 163.62 85.2227C163.941 85.2227 164.296 85.2456 164.685 85.2914C165.075 85.3372 165.395 85.3944 165.647 85.4631ZM182.421 99.4432C182.421 100.955 182.066 102.306 181.356 103.496C180.669 104.687 179.707 105.626 178.471 106.313C177.234 106.977 175.826 107.309 174.246 107.309C172.666 107.309 171.258 106.977 170.021 106.313C168.784 105.626 167.811 104.687 167.101 103.496C166.414 102.306 166.071 100.955 166.071 99.4432C166.071 97.9089 166.414 96.5579 167.101 95.39C167.811 94.1992 168.784 93.2718 170.021 92.6077C171.258 91.9207 172.666 91.5772 174.246 91.5772C175.826 91.5772 177.234 91.9207 178.471 92.6077C179.707 93.2718 180.669 94.1992 181.356 95.39C182.066 96.5579 182.421 97.9089 182.421 99.4432ZM177.887 99.4432C177.887 98.6417 177.727 97.9433 177.406 97.3479C177.085 96.7296 176.65 96.2602 176.101 95.9396C175.551 95.5961 174.933 95.4243 174.246 95.4243C173.559 95.4243 172.941 95.5961 172.391 95.9396C171.841 96.2602 171.406 96.7296 171.086 97.3479C170.765 97.9433 170.605 98.6417 170.605 99.4432C170.605 100.245 170.765 100.955 171.086 101.573C171.406 102.168 171.841 102.638 172.391 102.981C172.964 103.302 173.582 103.462 174.246 103.462C174.956 103.462 175.586 103.302 176.135 102.981C176.685 102.638 177.108 102.168 177.406 101.573C177.727 100.955 177.887 100.245 177.887 99.4432ZM194.017 91.749L193.845 95.9739C193.707 95.9052 193.467 95.8365 193.123 95.7678C192.803 95.6991 192.494 95.6648 192.196 95.6648C191.578 95.6648 190.971 95.7793 190.376 96.0083C189.803 96.2144 189.276 96.5006 188.795 96.867V107H184.399V91.9894L188.795 91.7833V93.5695C189.46 92.8825 190.135 92.3787 190.822 92.0581C191.532 91.7375 192.265 91.5772 193.02 91.5772C193.181 91.5772 193.352 91.5887 193.536 91.6116C193.742 91.6345 193.902 91.6803 194.017 91.749Z" fill="white"/>
<path d="M215.865 87.3867L215.006 91.4399C214.64 91.2109 214.147 91.0162 213.529 90.8559C212.934 90.6956 212.315 90.5697 211.674 90.4781C211.033 90.3636 210.426 90.3063 209.854 90.3063C208.754 90.3063 207.919 90.4666 207.346 90.7872C206.774 91.1078 206.487 91.6001 206.487 92.2642C206.487 92.7222 206.671 93.0886 207.037 93.3634C207.403 93.6382 207.884 93.8786 208.48 94.0847C209.098 94.2908 209.773 94.4969 210.506 94.703C211.239 94.9091 211.972 95.161 212.705 95.4587C213.437 95.7335 214.101 96.0999 214.697 96.5579C215.292 96.993 215.773 97.5654 216.139 98.2753C216.529 98.9623 216.723 99.821 216.723 100.852C216.723 102.821 216.002 104.389 214.559 105.557C213.117 106.725 211.033 107.309 208.308 107.309C207.048 107.309 205.846 107.195 204.701 106.966C203.579 106.737 202.652 106.428 201.919 106.038L202.297 101.779C202.755 102.054 203.316 102.306 203.98 102.535C204.644 102.764 205.365 102.947 206.144 103.084C206.922 103.222 207.69 103.29 208.445 103.29C209.659 103.29 210.563 103.13 211.159 102.809C211.754 102.466 212.052 101.951 212.052 101.264C212.052 100.783 211.857 100.394 211.468 100.096C211.102 99.7981 210.621 99.5462 210.025 99.3401C209.43 99.1341 208.766 98.928 208.033 98.7219C207.3 98.5158 206.568 98.2753 205.835 98.0005C205.102 97.7028 204.426 97.3364 203.808 96.9014C203.213 96.4663 202.732 95.9052 202.365 95.2183C201.999 94.5313 201.816 93.6725 201.816 92.6421C201.816 91.3826 202.125 90.2834 202.743 89.3446C203.385 88.3828 204.3 87.6385 205.491 87.1119C206.682 86.5623 208.102 86.2875 209.751 86.2875C210.415 86.2875 211.125 86.3333 211.88 86.4249C212.636 86.4936 213.357 86.6081 214.044 86.7684C214.754 86.9287 215.361 87.1348 215.865 87.3867ZM234.315 99.4432C234.315 100.955 233.96 102.306 233.25 103.496C232.563 104.687 231.601 105.626 230.365 106.313C229.128 106.977 227.72 107.309 226.14 107.309C224.56 107.309 223.152 106.977 221.915 106.313C220.678 105.626 219.705 104.687 218.995 103.496C218.308 102.306 217.965 100.955 217.965 99.4432C217.965 97.9089 218.308 96.5579 218.995 95.39C219.705 94.1992 220.678 93.2718 221.915 92.6077C223.152 91.9207 224.56 91.5772 226.14 91.5772C227.72 91.5772 229.128 91.9207 230.365 92.6077C231.601 93.2718 232.563 94.1992 233.25 95.39C233.96 96.5579 234.315 97.9089 234.315 99.4432ZM229.781 99.4432C229.781 98.6417 229.621 97.9433 229.3 97.3479C228.979 96.7296 228.544 96.2602 227.995 95.9396C227.445 95.5961 226.827 95.4243 226.14 95.4243C225.453 95.4243 224.835 95.5961 224.285 95.9396C223.735 96.2602 223.3 96.7296 222.98 97.3479C222.659 97.9433 222.499 98.6417 222.499 99.4432C222.499 100.245 222.659 100.955 222.98 101.573C223.3 102.168 223.735 102.638 224.285 102.981C224.858 103.302 225.476 103.462 226.14 103.462C226.85 103.462 227.48 103.302 228.029 102.981C228.579 102.638 229.002 102.168 229.3 101.573C229.621 100.955 229.781 100.245 229.781 99.4432ZM254.36 86.5966V107H249.792V98.7906H241.17V107H236.602V86.5966H241.17V94.6687H249.792V86.5966H254.36ZM270.536 107H266.379V105.832C265.83 106.267 265.166 106.622 264.387 106.897C263.609 107.172 262.75 107.309 261.811 107.309C260.139 107.309 258.857 106.908 257.964 106.107C257.094 105.305 256.659 104.195 256.659 102.775C256.659 101.241 257.197 100.084 258.273 99.3058C259.349 98.5043 260.803 98.1036 262.635 98.1036C263.299 98.1036 263.963 98.1608 264.628 98.2753C265.292 98.3898 265.83 98.5387 266.242 98.7219V97.8975C266.242 97.0044 265.956 96.3747 265.383 96.0083C264.834 95.619 263.963 95.4243 262.773 95.4243C261.925 95.4243 261.055 95.5274 260.162 95.7335C259.292 95.9396 258.594 96.2029 258.067 96.5235L257.895 92.6764C258.605 92.3329 259.441 92.0696 260.403 91.8864C261.387 91.6803 262.395 91.5772 263.425 91.5772C265.715 91.5772 267.467 92.0696 268.681 93.0543C269.917 94.016 270.536 95.5388 270.536 97.6227V107ZM266.242 103.496V101.332C265.921 101.172 265.521 101.046 265.04 100.955C264.582 100.863 264.135 100.817 263.7 100.817C262.83 100.817 262.166 100.977 261.708 101.298C261.25 101.596 261.021 102.065 261.021 102.706C261.021 103.302 261.216 103.737 261.605 104.012C261.994 104.264 262.567 104.389 263.322 104.389C263.849 104.389 264.387 104.309 264.937 104.149C265.486 103.966 265.921 103.748 266.242 103.496ZM288.524 99.2714C288.524 100.806 288.191 102.18 287.527 103.393C286.886 104.607 285.993 105.569 284.848 106.279C283.726 106.966 282.421 107.309 280.932 107.309C279.65 107.309 278.608 107.103 277.807 106.691V113.355H273.41V91.9894L277.807 91.7833V92.8825C278.333 92.4474 278.917 92.1268 279.558 91.9207C280.2 91.6917 280.932 91.5772 281.757 91.5772C283.016 91.5772 284.15 91.8864 285.157 92.5047C286.188 93.123 287.001 94.0046 287.596 95.1496C288.214 96.2945 288.524 97.6685 288.524 99.2714ZM283.989 99.4088C283.989 98.5845 283.852 97.8746 283.577 97.2792C283.302 96.6609 282.89 96.1915 282.341 95.8709C281.814 95.5274 281.15 95.3556 280.348 95.3556C279.364 95.3556 278.516 95.619 277.807 96.1457V103.119C278.104 103.233 278.448 103.336 278.837 103.428C279.249 103.496 279.673 103.531 280.108 103.531C280.909 103.531 281.596 103.37 282.169 103.05C282.741 102.706 283.188 102.225 283.509 101.607C283.829 100.966 283.989 100.233 283.989 99.4088ZM305.623 99.2714C305.623 100.806 305.291 102.18 304.627 103.393C303.986 104.607 303.093 105.569 301.948 106.279C300.826 106.966 299.52 107.309 298.032 107.309C296.749 107.309 295.708 107.103 294.906 106.691V113.355H290.509V91.9894L294.906 91.7833V92.8825C295.433 92.4474 296.017 92.1268 296.658 91.9207C297.299 91.6917 298.032 91.5772 298.856 91.5772C300.116 91.5772 301.249 91.8864 302.257 92.5047C303.287 93.123 304.1 94.0046 304.696 95.1496C305.314 96.2945 305.623 97.6685 305.623 99.2714ZM301.089 99.4088C301.089 98.5845 300.951 97.8746 300.677 97.2792C300.402 96.6609 299.99 96.1915 299.44 95.8709C298.913 95.5274 298.249 95.3556 297.448 95.3556C296.463 95.3556 295.616 95.619 294.906 96.1457V103.119C295.204 103.233 295.547 103.336 295.936 103.428C296.349 103.496 296.772 103.531 297.207 103.531C298.009 103.531 298.696 103.37 299.268 103.05C299.841 102.706 300.287 102.225 300.608 101.607C300.929 100.966 301.089 100.233 301.089 99.4088ZM322.313 91.8864L317.848 104.767C317.207 106.668 316.44 108.248 315.547 109.507C314.676 110.767 313.715 111.729 312.661 112.393C311.631 113.057 310.543 113.481 309.398 113.664L307.543 110.229C308.62 110.023 309.524 109.645 310.257 109.095C311.013 108.546 311.619 107.847 312.077 107L306.101 91.9894L310.738 91.7833L313.28 98.344C313.577 99.1913 313.841 99.9813 314.07 100.714C314.322 101.447 314.493 102.065 314.585 102.569H314.757C314.848 102.065 314.986 101.447 315.169 100.714C315.352 99.9813 315.57 99.1913 315.821 98.344L317.882 91.8864H322.313Z" fill="#A0A8FF"/>
<g style="mix-blend-mode:overlay">
<path fill-rule="evenodd" clip-rule="evenodd" d="M477.798 -3.92365L379 -3.92364V-55L477.798 -55L477.798 -3.92365L529.11 -3.92364V94.7405L477.798 95.3454L477.798 47.5157C451.624 47.9714 430.547 69.211 430.547 95.3454H379C379 40.9038 423.155 -3.46485 477.798 -3.92365Z" fill="#A0A8FF"/>
<path fill-rule="evenodd" clip-rule="evenodd" d="M580.892 94.9329L679.69 94.9293V146.187H580.892V94.9293L529.11 94.7407V-3.92344L580.892 -3.92344V43.6713C607.066 43.2156 628.127 22.211 628.127 -3.92344H679.221C679.221 50.5181 635.536 94.4705 580.892 94.9293V94.9329Z" fill="#0618D8" fill-opacity="0.5"/>
<path fill-rule="evenodd" clip-rule="evenodd" d="M778.489 47.0959L679.221 47.0959V-3.92334L778.489 -3.92334V47.0995L830.036 47.0995V146.187H778.489V98.3574C752.315 98.8132 731.238 120.053 731.238 146.187H679.691C679.691 91.7456 723.845 47.5583 778.489 47.0995V47.0959Z" fill="#A0A8FF" fill-opacity="0.7"/>
</g>
</g>
<rect x="0.5" y="0.5" width="829" height="134" rx="13.5" stroke="url(#paint2_linear_608_6286)" style="mix-blend-mode:overlay"/>
<rect x="0.5" y="0.5" width="829" height="134" rx="13.5" stroke="url(#paint3_linear_608_6286)" stroke-opacity="0.1"/>
<rect x="0.5" y="0.5" width="829" height="134" rx="13.5" stroke="white" stroke-opacity="0.1"/>
<defs>
<radialGradient id="paint0_radial_608_6286" cx="0" cy="0" r="1" gradientUnits="userSpaceOnUse" gradientTransform="translate(9.4458e-07 165.586) rotate(17.7974) scale(413.385 308.037)">
<stop offset="0.100613" stop-color="#A0A8FF" stop-opacity="0"/>
<stop offset="0.515" stop-color="#0015FF"/>
<stop offset="1" stop-color="#0015FF" stop-opacity="0.35"/>
</radialGradient>
<radialGradient id="paint1_radial_608_6286" cx="0" cy="0" r="1" gradientUnits="userSpaceOnUse" gradientTransform="translate(1075 -132) rotate(110.154) scale(458.578 1768.11)">
<stop stop-color="#2B36B1" stop-opacity="0"/>
<stop offset="0.285" stop-color="#2B36B1"/>
<stop offset="1" stop-color="#2B36B1" stop-opacity="0.184314"/>
</radialGradient>
<linearGradient id="paint2_linear_608_6286" x1="415" y1="0" x2="415" y2="135" gradientUnits="userSpaceOnUse">
<stop stop-color="white" stop-opacity="0.6"/>
<stop offset="0.5" stop-color="white" stop-opacity="0"/>
<stop offset="1" stop-color="white"/>
</linearGradient>
<linearGradient id="paint3_linear_608_6286" x1="415" y1="0" x2="415" y2="135" gradientUnits="userSpaceOnUse">
<stop stop-color="white" stop-opacity="0.6"/>
<stop offset="0.5" stop-color="white" stop-opacity="0"/>
<stop offset="1" stop-color="white"/>
</linearGradient>
<clipPath id="clip0_608_6286">
<rect width="830" height="135" rx="14" fill="white"/>
</clipPath>
</defs>
</svg>
